<svg width="28" height="28" viewBox="0 0 28 28" fill="none" xmlns="http://www.w3.org/2000/svg">
<path d="M4.66602 20.9948C4.66602 19.7571 5.15768 18.5701 6.03285 17.695C6.90802 16.8198 8.09501 16.3281 9.33268 16.3281H18.666C19.9037 16.3281 21.0907 16.8198 21.9658 17.695C22.841 18.5701 23.3327 19.7571 23.3327 20.9948C23.3327 21.6136 23.0868 22.2071 22.6493 22.6447C22.2117 23.0823 21.6182 23.3281 20.9993 23.3281H6.99935C6.38051 23.3281 5.78702 23.0823 5.34943 22.6447C4.91185 22.2071 4.66602 21.6136 4.66602 20.9948Z" stroke="white" stroke-width="2" stroke-linejoin="round"/>
<path d="M14 11.6641C15.933 11.6641 17.5 10.0971 17.5 8.16406C17.5 6.23107 15.933 4.66406 14 4.66406C12.067 4.66406 10.5 6.23107 10.5 8.16406C10.5 10.0971 12.067 11.6641 14 11.6641Z" stroke="white" stroke-width="2"/>
</svg>
